<svg width="1440" height="447" viewBox="0 0 1440 447" fill="none" xmlns="http://www.w3.org/2000/svg">
<path d="M1364 0C1474.46 0 1564 89.5431 1564 200C1564 285.453 1510.41 358.388 1435 387.03V447H-5V379.154C-70.7937 346.406 -116 278.483 -116 200C-116 89.5431 -26.4569 0 84 0C174.72 0 251.331 60.4021 275.813 143.184C296.119 104.437 336.721 78 383.5 78C437.147 78 482.672 112.77 498.772 161.003C524.601 140.35 557.358 128 593 128C643.732 128 688.62 153.019 716 191.391C743.38 153.019 788.268 128 839 128C883.402 128 923.327 147.166 950.956 177.675C961.238 120.988 1010.85 78 1070.5 78C1114.48 78 1153.01 101.373 1174.33 136.375C1200.91 57.1109 1275.79 0 1364 0Z" fill="#F5F2ED"/>
</svg>
