<svg width="393" height="201" viewBox="0 0 393 201" fill="none" xmlns="http://www.w3.org/2000/svg">
<path d="M527.852 0C585.009 1.11694e-05 631.345 41.8393 631.345 93.4502C631.344 145.061 585.009 186.899 527.852 186.899C482.079 186.899 443.248 160.067 429.595 122.873C418.538 139.138 398.66 149.987 375.975 149.987C359.895 149.987 345.225 144.535 334.107 135.568C331.156 172.104 297.396 200.917 256.181 200.917C229.929 200.917 206.701 189.227 192.532 171.298C178.364 189.227 155.136 200.917 128.884 200.917C90.2772 200.917 58.2113 175.635 51.8818 142.406C42.6407 147.227 31.9145 149.987 20.4746 149.987C-3.65754 149.987 -24.6143 137.71 -35.1533 119.696C-47.7152 158.53 -87.441 186.899 -134.507 186.899C-191.664 186.899 -238 145.061 -238 93.4502C-238 41.8394 -191.665 0.000137773 -134.507 0C-87.5626 0 -47.9193 28.223 -35.25 66.9023C-24.7429 48.7977 -3.73176 36.4454 20.4746 36.4453C48.2348 36.4453 71.792 52.6911 80.124 75.2275C93.4894 65.5778 110.44 59.8077 128.884 59.8076C150.663 59.8076 170.36 67.8545 184.53 80.834H200.534C214.704 67.8545 234.401 59.8077 256.181 59.8076C277.96 59.8076 297.657 67.8547 311.827 80.834H314.604C320.861 55.4352 345.961 36.4454 375.975 36.4453C398.735 36.4453 418.671 47.3659 429.706 63.7207C443.46 26.6849 482.204 2.97369e-05 527.852 0Z" fill="#F5F2ED"/>
</svg>
