<svg width="599" height="279" viewBox="0 0 599 279" fill="none" xmlns="http://www.w3.org/2000/svg">
<path d="M192 0C222.359 0 248.388 18.5327 259.395 44.9014C272.78 28.4843 293.166 18 316 18C336.291 18 354.648 26.2789 367.878 39.6426C380.743 18.8513 403.754 5 430 5C467.892 5 499.04 33.8704 502.649 70.8145C509.981 68.3409 517.834 67 526 67C566.317 67 599 99.6832 599 140C599 180.317 566.317 213 526 213C515.861 213 506.206 210.932 497.431 207.196C486.426 240.581 451.225 265 409.5 265C381.113 265 355.746 253.697 338.963 235.959C320.8 261.978 290.638 279 256.5 279C219.833 279 187.753 259.362 170.201 230.031C157.025 242.999 138.947 251 119 251C78.6832 251 46 218.317 46 178C46 176.29 46.0601 174.594 46.1758 172.913C19.1316 162.222 0 135.846 0 105C0 64.6832 32.6832 32 73 32C92.0126 32 109.327 39.269 122.317 51.1787C131.595 21.5212 159.284 0 192 0Z" fill="white" fill-opacity="0.7"/>
</svg>
