<svg width="357" height="186" viewBox="0 0 357 186" fill="none" xmlns="http://www.w3.org/2000/svg">
<path fill-rule="evenodd" clip-rule="evenodd" d="M183.999 0C201.765 0 217.487 7.80493 227.104 19.7822C234.821 12.1785 245.053 7.54688 256.277 7.54688C278.86 7.54705 297.423 26.2919 299.574 50.2783C303.944 48.6721 308.625 47.8018 313.492 47.8018C337.521 47.8019 356.999 69.0226 356.999 95.1992C356.999 121.376 337.521 142.596 313.492 142.597C307.449 142.597 301.695 141.254 296.465 138.828C289.906 160.504 268.927 176.359 244.059 176.359C227.14 176.359 212.022 169.021 202.02 157.504C191.194 174.398 173.218 185.45 152.872 185.45C131.017 185.45 111.897 172.698 101.437 153.652C93.5836 162.072 82.8115 167.269 70.9229 167.27C46.8943 167.27 27.415 146.049 27.415 119.872C27.415 118.762 27.4526 117.661 27.5215 116.57C11.4026 109.629 1.3033e-05 92.5036 0 72.4756C0 46.2989 19.4784 25.0782 43.5068 25.0781C54.8385 25.0781 65.1572 29.7992 72.8994 37.5322C78.4285 18.2756 94.9309 4.30184 114.43 4.30176C125.69 4.30176 135.952 8.96229 143.678 16.6094C153.399 6.44541 167.855 0 183.999 0Z" fill="white" fill-opacity="0.7"/>
</svg>
