<svg width="230" height="163" viewBox="0 0 230 163" fill="none" xmlns="http://www.w3.org/2000/svg">
<path d="M133.494 4.13565C154.235 8.55559 168.971 25.7468 171.226 45.7203C179.261 39.227 190.048 36.2796 200.939 38.6005C220.105 42.6847 232.331 61.5327 228.247 80.6985C226.643 88.2222 222.764 94.6754 217.485 99.4934C220.239 106.612 221.026 114.586 219.316 122.609C214.635 144.576 193.032 158.589 171.065 153.908C164.426 152.493 158.515 149.53 153.625 145.481C142.534 158.239 125.032 164.75 107.327 160.977C93.4501 158.02 82.2622 149.344 75.7003 137.945C65.1472 145.372 51.6517 148.555 38.0353 145.653C12.0877 140.124 -4.46441 114.607 1.06468 88.6592C4.3109 73.4254 14.4478 61.4325 27.5153 55.2427C26.6712 49.6765 26.7951 43.867 28.0378 38.0353C33.5671 12.0877 59.0841 -4.4644 85.0317 1.06466C91.2467 2.38904 96.9213 4.86237 101.884 8.21139C111.313 3.45791 122.363 1.76373 133.494 4.13565Z" fill="#6CA0D5" fill-opacity="0.2"/>
</svg>
