<svg width="460" height="409" viewBox="0 0 460 409" fill="none" xmlns="http://www.w3.org/2000/svg">
<path d="M155.017 0C195.551 5.74021e-05 232.45 14.7991 260.071 39.0244C275.022 32.1378 291.801 28.2764 309.527 28.2764C372.273 28.2764 423.138 76.655 423.139 136.333C423.139 144.085 422.277 151.645 420.646 158.935C444.355 177.361 459.494 205.405 459.494 236.816C459.494 292.311 412.246 337.299 353.962 337.299C340.343 337.299 327.328 334.842 315.376 330.369C289.384 377.133 237.727 409 178.243 409C92.6303 409 23.2275 342.987 23.2275 261.558C23.2276 250.81 24.4367 240.331 26.7324 230.237C9.86137 206.635 8.82565e-05 178.134 0 147.442C0 66.0124 69.4036 0 155.017 0Z" fill="#6CA0D5" fill-opacity="0.4"/>
</svg>
